M48
; DRILL file {KiCad 9.0.6} date 2026-06-11T11:24:38+1000
; FORMAT={-:-/ absolute / metric / decimal}
; #@! TF.CreationDate,2026-06-11T11:24:38+10:00
; #@! TF.GenerationSoftware,Kicad,Pcbnew,9.0.6
; #@! TF.FileFunction,MixedPlating,1,2
FMAT,2
METRIC
; #@! TA.AperFunction,Plated,PTH,ViaDrill
T1C0.300
; #@! TA.AperFunction,Plated,PTH,ComponentDrill
T2C0.300
; #@! TA.AperFunction,Plated,PTH,ViaDrill
T3C0.400
; #@! TA.AperFunction,Plated,PTH,ComponentDrill
T4C0.400
; #@! TA.AperFunction,Plated,PTH,ComponentDrill
T5C0.600
; #@! TA.AperFunction,Plated,PTH,ComponentDrill
T6C0.800
; #@! TA.AperFunction,Plated,PTH,ComponentDrill
T7C0.900
; #@! TA.AperFunction,Plated,PTH,ComponentDrill
T8C1.000
; #@! TA.AperFunction,NonPlated,NPTH,ComponentDrill
T9C3.200
%
G90
G05
T1
X102.4Y-105.6
X106.0Y-62.4
X106.0Y-66.0
X106.0Y-73.2
X106.0Y-76.8
X106.0Y-80.4
X106.0Y-84.0
X106.0Y-91.2
X106.204Y-104.22
X107.0Y-102.5
X108.7Y-113.4
X108.862Y-104.2
X109.519Y-88.517
X109.6Y-62.4
X109.6Y-73.2
X109.6Y-76.8
X109.6Y-80.4
X109.6Y-84.0
X109.6Y-91.2
X110.4Y-101.2
X110.475Y-67.606
X111.4Y-101.1
X112.183Y-67.313
X112.6Y-103.9
X113.2Y-73.2
X113.2Y-91.2
X113.2Y-109.2
X113.2Y-112.8
X115.306Y-70.762
X115.4Y-86.0
X115.6Y-75.9
X115.8Y-108.0
X116.489Y-67.508
X116.55Y-93.85
X116.8Y-62.4
X116.8Y-109.2
X118.2Y-104.9
X119.168Y-83.706
X119.208Y-67.508
X119.468Y-93.538
X120.0Y-90.6
X120.182Y-67.976
X120.3Y-98.6
X120.4Y-109.2
X120.4Y-112.8
X121.276Y-75.928
X121.3Y-74.1
X121.893Y-71.079
X122.706Y-94.29
X122.8Y-65.8
X123.281Y-69.212
X123.9Y-99.1
X124.0Y-109.2
X124.0Y-112.8
X124.225Y-95.639
X124.4Y-76.0
X124.483Y-83.437
X124.796Y-81.533
X125.568Y-90.843
X125.867Y-99.996
X126.258Y-89.959
X126.375Y-73.959
X126.906Y-95.036
X127.189Y-94.219
X127.516Y-98.414
X127.742Y-96.745
X127.752Y-89.994
X127.952Y-85.21
X128.3Y-76.1
X128.849Y-91.16
X128.861Y-90.077
X128.882Y-87.224
X129.8Y-77.6
X130.089Y-90.25
X130.721Y-91.843
X131.358Y-102.906
X131.424Y-81.073
X131.709Y-92.557
X131.972Y-85.821
X132.104Y-82.641
X132.119Y-91.266
X132.181Y-89.674
X132.3Y-77.2
X132.728Y-80.699
X133.101Y-73.511
X133.27Y-99.259
X133.6Y-98.4
X134.062Y-90.927
X134.8Y-102.0
X134.8Y-105.6
X135.5Y-96.4
X136.0Y-74.2
X137.3Y-82.212
X138.307Y-91.762
X138.4Y-98.4
X138.4Y-105.6
X138.4Y-109.2
X140.1Y-74.2
X140.604Y-77.389
X140.978Y-73.07
X140.981Y-90.781
X142.0Y-98.4
X142.0Y-105.6
X142.0Y-109.2
X142.0Y-112.8
X142.818Y-78.875
X142.953Y-92.385
X143.7Y-102.9
X144.015Y-85.215
X144.927Y-95.925
X145.6Y-69.6
X145.6Y-87.6
X145.6Y-105.6
X145.6Y-109.2
X145.6Y-112.8
X145.687Y-82.02
X146.2Y-91.8
X146.201Y-90.665
X146.8Y-108.2
X146.999Y-97.023
X148.912Y-105.627
X149.2Y-112.8
X149.298Y-100.862
X149.648Y-78.566
X150.274Y-99.262
X151.321Y-72.554
X152.47Y-75.053
X152.7Y-65.1
X152.8Y-69.6
X152.8Y-73.2
X152.8Y-84.0
X152.8Y-112.8
X153.2Y-98.7
X154.1Y-62.9
X154.5Y-64.5
X154.9Y-62.3
X156.4Y-69.6
X156.4Y-73.2
X156.4Y-109.2
X156.4Y-112.8
X156.5Y-79.2
X157.1Y-98.4
X157.23Y-99.723
X157.823Y-60.99
X158.5Y-108.5
X158.7Y-81.4
X158.847Y-77.593
X159.9Y-92.2
X160.0Y-102.0
X160.0Y-105.6
X160.0Y-112.8
X160.55Y-95.253
X160.7Y-106.3
X160.769Y-81.36
X161.356Y-107.837
X162.1Y-96.7
X163.107Y-83.771
X163.4Y-98.3
X163.6Y-91.2
X163.6Y-94.8
X163.6Y-102.0
X163.6Y-105.6
X163.6Y-112.8
X164.655Y-82.634
X165.9Y-67.2
X166.0Y-68.1
X166.032Y-78.725
X166.5Y-77.5
X167.2Y-66.0
X167.2Y-76.8
X167.2Y-94.8
X167.2Y-105.6
X167.2Y-109.2
X167.2Y-112.8
X167.3Y-85.3
X167.6Y-69.7
X168.4Y-70.5
X170.545Y-93.586
X170.8Y-62.4
X170.8Y-69.6
X170.8Y-80.4
X170.8Y-87.6
X170.8Y-105.6
X170.8Y-109.2
X170.8Y-112.8
X170.814Y-91.174
X172.871Y-66.967
X174.4Y-80.4
X174.4Y-87.6
X174.4Y-105.6
X178.0Y-69.6
X178.0Y-73.2
X178.0Y-76.8
X178.0Y-80.4
X178.0Y-84.0
X178.0Y-87.6
X178.0Y-91.2
X178.0Y-98.4
X178.0Y-105.6
T2
X111.57Y-78.8
X111.57Y-80.2
X112.27Y-78.1
X112.27Y-79.525
X112.27Y-80.9
X112.97Y-78.8
X112.97Y-80.2
X113.67Y-78.1
X113.67Y-79.525
X113.67Y-80.9
X114.37Y-78.8
X114.37Y-80.2
T3
X107.6Y-93.1
X107.6Y-100.2
X108.8Y-92.1
X109.3Y-93.1
X113.3Y-100.1
X113.4Y-93.1
X114.8Y-67.7
X118.3Y-71.0
X118.3Y-74.9
X118.7Y-88.1
X119.0Y-63.7
X125.5Y-83.8
X125.5Y-87.2
X129.9Y-81.6
X130.5Y-83.2
X133.7Y-77.6
X138.9Y-77.7
X153.1Y-79.1
X157.0Y-83.0
X158.8Y-97.5
X159.0Y-92.7
X166.2Y-96.6
X167.3Y-89.1
X169.0Y-77.7
X169.0Y-87.4
T4
X129.05Y-112.65
X129.05Y-114.0
X129.9Y-112.65
X129.9Y-114.0
X130.75Y-112.65
X130.75Y-114.0
X131.6Y-112.65
X131.6Y-114.0
X132.45Y-112.65
X132.45Y-114.0
X133.3Y-112.65
X133.3Y-114.0
X134.15Y-112.65
X134.15Y-114.0
X135.0Y-112.65
X135.0Y-114.0
T6
X115.2Y-111.5
X117.74Y-111.5
X166.0Y-84.5
X168.54Y-84.5
X171.08Y-84.5
X173.62Y-84.5
T7
X110.5Y-105.26
X110.5Y-107.8
X115.1Y-103.96
X115.1Y-106.5
X119.75Y-103.96
X119.75Y-106.5
X124.4Y-103.96
X124.4Y-106.5
X130.645Y-65.048
X133.0Y-66.0
X140.008Y-63.662
X141.0Y-66.0
X146.0Y-100.96
X146.0Y-103.5
X148.0Y-76.16
X148.0Y-78.7
X149.0Y-66.0
X149.952Y-63.645
X151.5Y-100.96
X151.5Y-103.5
X157.0Y-66.0
X159.338Y-65.008
X175.0Y-71.0
X175.0Y-73.54
X175.0Y-76.08
T8
X121.3Y-63.9
X121.3Y-66.44
X155.0Y-86.0
X155.0Y-88.54
X155.0Y-91.08
X155.0Y-93.62
X155.0Y-96.16
X157.54Y-86.0
X157.54Y-88.54
X157.54Y-91.08
X157.54Y-93.62
X157.54Y-96.16
X167.0Y-100.96
X167.0Y-103.5
X169.54Y-100.96
X169.54Y-103.5
X172.08Y-100.96
X172.08Y-103.5
X174.62Y-100.96
X174.62Y-103.5
X177.16Y-100.96
X177.16Y-103.5
T9
X102.5Y-62.5
X103.942Y-111.0
X176.0Y-64.0
X176.0Y-111.0
T5
X127.7Y-110.04G85X127.7Y-109.24
G05
X127.7Y-113.77G85X127.7Y-112.27
G05
X136.35Y-110.04G85X136.35Y-109.24
G05
X136.35Y-113.77G85X136.35Y-112.27
G05
M30
