%TF.GenerationSoftware,KiCad,Pcbnew,9.0.6*%
%TF.CreationDate,2026-06-11T10:18:39+10:00*%
%TF.ProjectId,esp32-ir-remote,65737033-322d-4697-922d-72656d6f7465,rev?*%
%TF.SameCoordinates,Original*%
%TF.FileFunction,Soldermask,Top*%
%TF.FilePolarity,Negative*%
%FSLAX46Y46*%
G04 Gerber Fmt 4.6, Leading zero omitted, Abs format (unit mm)*
G04 Created by KiCad (PCBNEW 9.0.6) date 2026-06-11 10:18:39*
%MOMM*%
%LPD*%
G01*
G04 APERTURE LIST*
G04 Aperture macros list*
%AMRoundRect*
0 Rectangle with rounded corners*
0 $1 Rounding radius*
0 $2 $3 $4 $5 $6 $7 $8 $9 X,Y pos of 4 corners*
0 Add a 4 corners polygon primitive as box body*
4,1,4,$2,$3,$4,$5,$6,$7,$8,$9,$2,$3,0*
0 Add four circle primitives for the rounded corners*
1,1,$1+$1,$2,$3*
1,1,$1+$1,$4,$5*
1,1,$1+$1,$6,$7*
1,1,$1+$1,$8,$9*
0 Add four rect primitives between the rounded corners*
20,1,$1+$1,$2,$3,$4,$5,0*
20,1,$1+$1,$4,$5,$6,$7,0*
20,1,$1+$1,$6,$7,$8,$9,0*
20,1,$1+$1,$8,$9,$2,$3,0*%
%AMRotRect*
0 Rectangle, with rotation*
0 The origin of the aperture is its center*
0 $1 length*
0 $2 width*
0 $3 Rotation angle, in degrees counterclockwise*
0 Add horizontal line*
21,1,$1,$2,0,0,$3*%
G04 Aperture macros list end*
%ADD10RoundRect,0.250000X-0.262500X-0.450000X0.262500X-0.450000X0.262500X0.450000X-0.262500X0.450000X0*%
%ADD11R,1.800000X1.800000*%
%ADD12C,1.800000*%
%ADD13RoundRect,0.150000X-0.587500X-0.150000X0.587500X-0.150000X0.587500X0.150000X-0.587500X0.150000X0*%
%ADD14RoundRect,0.200000X0.275000X-0.200000X0.275000X0.200000X-0.275000X0.200000X-0.275000X-0.200000X0*%
%ADD15RoundRect,0.225000X-0.225000X-0.250000X0.225000X-0.250000X0.225000X0.250000X-0.225000X0.250000X0*%
%ADD16C,3.200000*%
%ADD17RotRect,1.800000X1.800000X68.000000*%
%ADD18RoundRect,0.250000X0.625000X-0.312500X0.625000X0.312500X-0.625000X0.312500X-0.625000X-0.312500X0*%
%ADD19RoundRect,0.225000X0.250000X-0.225000X0.250000X0.225000X-0.250000X0.225000X-0.250000X-0.225000X0*%
%ADD20RoundRect,0.307500X-0.307500X-0.622500X0.307500X-0.622500X0.307500X0.622500X-0.307500X0.622500X0*%
%ADD21RoundRect,0.250000X-0.312500X-0.625000X0.312500X-0.625000X0.312500X0.625000X-0.312500X0.625000X0*%
%ADD22RoundRect,0.250000X0.450000X-0.262500X0.450000X0.262500X-0.450000X0.262500X-0.450000X-0.262500X0*%
%ADD23RoundRect,0.200000X-0.200000X-0.275000X0.200000X-0.275000X0.200000X0.275000X-0.200000X0.275000X0*%
%ADD24RoundRect,0.250000X0.475000X-0.250000X0.475000X0.250000X-0.475000X0.250000X-0.475000X-0.250000X0*%
%ADD25R,2.650013X7.300000*%
%ADD26RoundRect,0.250000X1.450000X-0.312500X1.450000X0.312500X-1.450000X0.312500X-1.450000X-0.312500X0*%
%ADD27RotRect,1.800000X1.800000X23.000000*%
%ADD28RotRect,1.800000X1.800000X158.000000*%
%ADD29C,1.400000*%
%ADD30R,1.700000X1.700000*%
%ADD31C,1.700000*%
%ADD32RoundRect,0.250200X-0.649800X0.649800X-0.649800X-0.649800X0.649800X-0.649800X0.649800X0.649800X0*%
%ADD33RoundRect,0.250000X0.900000X-1.000000X0.900000X1.000000X-0.900000X1.000000X-0.900000X-1.000000X0*%
%ADD34RoundRect,0.150000X0.512500X0.150000X-0.512500X0.150000X-0.512500X-0.150000X0.512500X-0.150000X0*%
%ADD35RoundRect,0.150000X-0.150000X0.825000X-0.150000X-0.825000X0.150000X-0.825000X0.150000X0.825000X0*%
%ADD36RoundRect,0.250000X-0.250000X-0.475000X0.250000X-0.475000X0.250000X0.475000X-0.250000X0.475000X0*%
%ADD37RoundRect,0.150000X-0.625000X0.150000X-0.625000X-0.150000X0.625000X-0.150000X0.625000X0.150000X0*%
%ADD38RoundRect,0.250000X-0.650000X0.350000X-0.650000X-0.350000X0.650000X-0.350000X0.650000X0.350000X0*%
%ADD39R,0.900000X1.500000*%
%ADD40R,1.500000X0.900000*%
%ADD41C,0.600000*%
%ADD42R,3.800000X3.800000*%
%ADD43R,1.500000X1.500000*%
%ADD44C,1.500000*%
%ADD45RotRect,1.800000X1.800000X113.000000*%
%ADD46C,0.700000*%
%ADD47O,0.900000X2.400000*%
%ADD48O,0.900000X1.700000*%
G04 APERTURE END LIST*
D10*
%TO.C,R1*%
X131087500Y-97500000D03*
X132912500Y-97500000D03*
%TD*%
D11*
%TO.C,D8*%
X119750000Y-106500000D03*
D12*
X119750000Y-103960000D03*
%TD*%
D13*
%TO.C,Q3*%
X136562500Y-77550000D03*
X136562500Y-79450000D03*
X138437500Y-78500000D03*
%TD*%
D14*
%TO.C,R21*%
X131050000Y-90925000D03*
X131050000Y-89275000D03*
%TD*%
D11*
%TO.C,D10*%
X148000000Y-78700000D03*
D12*
X148000000Y-76160000D03*
%TD*%
D15*
%TO.C,C5*%
X108225000Y-89700000D03*
X109775000Y-89700000D03*
%TD*%
D16*
%TO.C,H2*%
X176000000Y-64000000D03*
%TD*%
D17*
%TO.C,D4*%
X149000000Y-66000000D03*
D12*
X149951501Y-63644953D03*
%TD*%
D13*
%TO.C,Q4*%
X145062500Y-96950000D03*
X145062500Y-98850000D03*
X146937500Y-97900000D03*
%TD*%
D18*
%TO.C,R12*%
X158500000Y-73962500D03*
X158500000Y-71037500D03*
%TD*%
%TO.C,R9*%
X134500000Y-73962500D03*
X134500000Y-71037500D03*
%TD*%
D19*
%TO.C,C4*%
X113300000Y-101575000D03*
X113300000Y-100025000D03*
%TD*%
D20*
%TO.C,SW2*%
X159815100Y-108300000D03*
X164184900Y-108300000D03*
%TD*%
D21*
%TO.C,R5*%
X159537500Y-79000000D03*
X162462500Y-79000000D03*
%TD*%
D10*
%TO.C,R25*%
X148587500Y-93150000D03*
X150412500Y-93150000D03*
%TD*%
D22*
%TO.C,R19*%
X148000000Y-83912500D03*
X148000000Y-82087500D03*
%TD*%
D18*
%TO.C,R11*%
X150500000Y-73962500D03*
X150500000Y-71037500D03*
%TD*%
D23*
%TO.C,R24*%
X153225000Y-98940000D03*
X154875000Y-98940000D03*
%TD*%
D24*
%TO.C,C2*%
X106300000Y-106550000D03*
X106300000Y-104650000D03*
%TD*%
D25*
%TO.C,L1*%
X106674879Y-95500000D03*
X111325121Y-95500000D03*
%TD*%
D21*
%TO.C,R4*%
X126037500Y-97300000D03*
X128962500Y-97300000D03*
%TD*%
D16*
%TO.C,H4*%
X176000000Y-111000000D03*
%TD*%
D21*
%TO.C,R8*%
X124837500Y-85230000D03*
X127762500Y-85230000D03*
%TD*%
D13*
%TO.C,Q1*%
X127422500Y-87250000D03*
X127422500Y-89150000D03*
X129297500Y-88200000D03*
%TD*%
D21*
%TO.C,R6*%
X164337500Y-79000000D03*
X167262500Y-79000000D03*
%TD*%
D26*
%TO.C,F1*%
X124400000Y-92937500D03*
X124400000Y-88662500D03*
%TD*%
D18*
%TO.C,R30*%
X125200000Y-72462500D03*
X125200000Y-69537500D03*
%TD*%
D27*
%TO.C,D5*%
X157000000Y-66000000D03*
D12*
X159338082Y-65007543D03*
%TD*%
D14*
%TO.C,R23*%
X144200000Y-82325000D03*
X144200000Y-80675000D03*
%TD*%
D21*
%TO.C,R28*%
X169337500Y-91500000D03*
X172262500Y-91500000D03*
%TD*%
D22*
%TO.C,R18*%
X124400000Y-102012500D03*
X124400000Y-100187500D03*
%TD*%
D15*
%TO.C,C7*%
X111225000Y-89700000D03*
X112775000Y-89700000D03*
%TD*%
D21*
%TO.C,R27*%
X167417500Y-73000000D03*
X170342500Y-73000000D03*
%TD*%
D28*
%TO.C,D2*%
X133000000Y-66000000D03*
D12*
X130644953Y-65048499D03*
%TD*%
D29*
%TO.C,JP1*%
X115200000Y-111500000D03*
X117740000Y-111500000D03*
%TD*%
D21*
%TO.C,R14*%
X138037500Y-82000000D03*
X140962500Y-82000000D03*
%TD*%
D30*
%TO.C,J6*%
X155000000Y-86000000D03*
D31*
X157540000Y-86000000D03*
X155000000Y-88540000D03*
X157540000Y-88540000D03*
X155000000Y-91080000D03*
X157540000Y-91080000D03*
X155000000Y-93620000D03*
X157540000Y-93620000D03*
X155000000Y-96160000D03*
X157540000Y-96160000D03*
%TD*%
D32*
%TO.C,U4*%
X175000000Y-71000000D03*
D12*
X175000000Y-73540000D03*
X175000000Y-76080000D03*
%TD*%
D33*
%TO.C,D1*%
X120000000Y-93650000D03*
X120000000Y-89350000D03*
%TD*%
D15*
%TO.C,C9*%
X168905000Y-76500000D03*
X170455000Y-76500000D03*
%TD*%
D22*
%TO.C,R17*%
X119750000Y-102012500D03*
X119750000Y-100187500D03*
%TD*%
D11*
%TO.C,D12*%
X151500000Y-103500000D03*
D12*
X151500000Y-100960000D03*
%TD*%
D10*
%TO.C,R2*%
X134587500Y-97500000D03*
X136412500Y-97500000D03*
%TD*%
D34*
%TO.C,U1*%
X111137500Y-102950000D03*
X111137500Y-102000000D03*
X111137500Y-101050000D03*
X108862500Y-101050000D03*
X108862500Y-102000000D03*
X108862500Y-102950000D03*
%TD*%
D13*
%TO.C,Q2*%
X127422500Y-91050000D03*
X127422500Y-92950000D03*
X129297500Y-92000000D03*
%TD*%
D30*
%TO.C,J4*%
X167000000Y-103500000D03*
D31*
X167000000Y-100960000D03*
X169540000Y-103500000D03*
X169540000Y-100960000D03*
X172080000Y-103500000D03*
X172080000Y-100960000D03*
X174620000Y-103500000D03*
X174620000Y-100960000D03*
X177160000Y-103500000D03*
X177160000Y-100960000D03*
%TD*%
D14*
%TO.C,R26*%
X130900000Y-95625000D03*
X130900000Y-93975000D03*
%TD*%
D24*
%TO.C,C1*%
X106300000Y-102550000D03*
X106300000Y-100650000D03*
%TD*%
D35*
%TO.C,U2*%
X142945000Y-89025000D03*
X141675000Y-89025000D03*
X140405000Y-89025000D03*
X139135000Y-89025000D03*
X137865000Y-89025000D03*
X136595000Y-89025000D03*
X135325000Y-89025000D03*
X134055000Y-89025000D03*
X134055000Y-93975000D03*
X135325000Y-93975000D03*
X136595000Y-93975000D03*
X137865000Y-93975000D03*
X139135000Y-93975000D03*
X140405000Y-93975000D03*
X141675000Y-93975000D03*
X142945000Y-93975000D03*
%TD*%
D11*
%TO.C,D7*%
X115100000Y-106500000D03*
D12*
X115100000Y-103960000D03*
%TD*%
D24*
%TO.C,C3*%
X115700000Y-95750000D03*
X115700000Y-93850000D03*
%TD*%
D11*
%TO.C,D9*%
X124400000Y-106500000D03*
D12*
X124400000Y-103960000D03*
%TD*%
D10*
%TO.C,R13*%
X133587500Y-82000000D03*
X135412500Y-82000000D03*
%TD*%
D11*
%TO.C,D6*%
X110500000Y-107800000D03*
D12*
X110500000Y-105260000D03*
%TD*%
D36*
%TO.C,C6*%
X140050000Y-85200000D03*
X141950000Y-85200000D03*
%TD*%
D24*
%TO.C,C8*%
X160440000Y-97450000D03*
X160440000Y-95550000D03*
%TD*%
D37*
%TO.C,J3*%
X178500000Y-93640000D03*
X178500000Y-94640000D03*
X178500000Y-95640000D03*
X178500000Y-96640000D03*
D38*
X174625000Y-92340000D03*
X174625000Y-97940000D03*
%TD*%
D39*
%TO.C,U3*%
X105250000Y-86750000D03*
X106520000Y-86750000D03*
X107790000Y-86750000D03*
X109060000Y-86750000D03*
X110330000Y-86750000D03*
X111600000Y-86750000D03*
X112870000Y-86750000D03*
X114140000Y-86750000D03*
X115410000Y-86750000D03*
X116680000Y-86750000D03*
X117950000Y-86750000D03*
X119220000Y-86750000D03*
X120490000Y-86750000D03*
X121760000Y-86750000D03*
D40*
X123010000Y-83710000D03*
X123010000Y-82440000D03*
X123010000Y-81170000D03*
X123010000Y-79900000D03*
X123010000Y-78630000D03*
X123010000Y-77360000D03*
X123010000Y-76090000D03*
X123010000Y-74820000D03*
X123010000Y-73550000D03*
X123010000Y-72280000D03*
D39*
X121760000Y-69250000D03*
X120490000Y-69250000D03*
X119220000Y-69250000D03*
X117950000Y-69250000D03*
X116680000Y-69250000D03*
X115410000Y-69250000D03*
X114140000Y-69250000D03*
X112870000Y-69250000D03*
X111600000Y-69250000D03*
X110330000Y-69250000D03*
X109060000Y-69250000D03*
X107790000Y-69250000D03*
X106520000Y-69250000D03*
X105250000Y-69250000D03*
D41*
X112270000Y-80900000D03*
X113670000Y-80900000D03*
X111570000Y-80200000D03*
X112970000Y-80200000D03*
X114370000Y-80200000D03*
X112270000Y-79525000D03*
X113670000Y-79525000D03*
D42*
X112970000Y-79500000D03*
D41*
X111570000Y-78800000D03*
X112970000Y-78800000D03*
X114370000Y-78800000D03*
X112270000Y-78100000D03*
X113670000Y-78100000D03*
%TD*%
D21*
%TO.C,R29*%
X169337500Y-94000000D03*
X172262500Y-94000000D03*
%TD*%
D16*
%TO.C,H3*%
X103942500Y-111000000D03*
%TD*%
D43*
%TO.C,U5*%
X166000000Y-84500000D03*
D44*
X168540000Y-84500000D03*
X171080000Y-84500000D03*
X173620000Y-84500000D03*
%TD*%
D21*
%TO.C,R7*%
X159537500Y-76400000D03*
X162462500Y-76400000D03*
%TD*%
D11*
%TO.C,D11*%
X146000000Y-103500000D03*
D12*
X146000000Y-100960000D03*
%TD*%
D16*
%TO.C,H1*%
X102500000Y-62500000D03*
%TD*%
D18*
%TO.C,R10*%
X142500000Y-73352500D03*
X142500000Y-70427500D03*
%TD*%
D30*
%TO.C,J5*%
X124500000Y-63900000D03*
D31*
X124500000Y-66440000D03*
%TD*%
D21*
%TO.C,R22*%
X153037500Y-76800000D03*
X155962500Y-76800000D03*
%TD*%
D22*
%TO.C,R16*%
X115100000Y-102012500D03*
X115100000Y-100187500D03*
%TD*%
D13*
%TO.C,Q5*%
X149562500Y-96950000D03*
X149562500Y-98850000D03*
X151437500Y-97900000D03*
%TD*%
D10*
%TO.C,R20*%
X148587500Y-90900000D03*
X150412500Y-90900000D03*
%TD*%
D21*
%TO.C,R3*%
X125837500Y-95000000D03*
X128762500Y-95000000D03*
%TD*%
D20*
%TO.C,SW1*%
X149815100Y-108300000D03*
X154184900Y-108300000D03*
%TD*%
D45*
%TO.C,D3*%
X141000000Y-66000000D03*
D12*
X140007543Y-63661918D03*
%TD*%
D46*
%TO.C,J2*%
X135000000Y-114000000D03*
X134150000Y-114000000D03*
X133300000Y-114000000D03*
X132450000Y-114000000D03*
X131600000Y-114000000D03*
X130750000Y-114000000D03*
X129900000Y-114000000D03*
X129050000Y-114000000D03*
X129050000Y-112650000D03*
X129900000Y-112650000D03*
X130750000Y-112650000D03*
X131600000Y-112650000D03*
X132450000Y-112650000D03*
X133300000Y-112650000D03*
X134150000Y-112650000D03*
X135000000Y-112650000D03*
D47*
X136350000Y-113020000D03*
D48*
X136350000Y-109640000D03*
D47*
X127700000Y-113020000D03*
D48*
X127700000Y-109640000D03*
%TD*%
D15*
%TO.C,C10*%
X114225000Y-89700000D03*
X115775000Y-89700000D03*
%TD*%
D21*
%TO.C,R15*%
X108537500Y-113200000D03*
X111462500Y-113200000D03*
%TD*%
M02*
