%TF.GenerationSoftware,KiCad,Pcbnew,9.0.6*%
%TF.CreationDate,2026-06-11T13:30:22+10:00*%
%TF.ProjectId,esp32-ir-remote,65737033-322d-4697-922d-72656d6f7465,rev?*%
%TF.SameCoordinates,Original*%
%TF.FileFunction,Soldermask,Bot*%
%TF.FilePolarity,Negative*%
%FSLAX46Y46*%
G04 Gerber Fmt 4.6, Leading zero omitted, Abs format (unit mm)*
G04 Created by KiCad (PCBNEW 9.0.6) date 2026-06-11 13:30:22*
%MOMM*%
%LPD*%
G01*
G04 APERTURE LIST*
G04 Aperture macros list*
%AMRoundRect*
0 Rectangle with rounded corners*
0 $1 Rounding radius*
0 $2 $3 $4 $5 $6 $7 $8 $9 X,Y pos of 4 corners*
0 Add a 4 corners polygon primitive as box body*
4,1,4,$2,$3,$4,$5,$6,$7,$8,$9,$2,$3,0*
0 Add four circle primitives for the rounded corners*
1,1,$1+$1,$2,$3*
1,1,$1+$1,$4,$5*
1,1,$1+$1,$6,$7*
1,1,$1+$1,$8,$9*
0 Add four rect primitives between the rounded corners*
20,1,$1+$1,$2,$3,$4,$5,0*
20,1,$1+$1,$4,$5,$6,$7,0*
20,1,$1+$1,$6,$7,$8,$9,0*
20,1,$1+$1,$8,$9,$2,$3,0*%
%AMRotRect*
0 Rectangle, with rotation*
0 The origin of the aperture is its center*
0 $1 length*
0 $2 width*
0 $3 Rotation angle, in degrees counterclockwise*
0 Add horizontal line*
21,1,$1,$2,0,0,$3*%
G04 Aperture macros list end*
%ADD10R,1.800000X1.800000*%
%ADD11C,1.800000*%
%ADD12C,3.200000*%
%ADD13RotRect,1.800000X1.800000X68.000000*%
%ADD14RotRect,1.800000X1.800000X23.000000*%
%ADD15RotRect,1.800000X1.800000X158.000000*%
%ADD16C,1.400000*%
%ADD17R,1.700000X1.700000*%
%ADD18C,1.700000*%
%ADD19RoundRect,0.250200X-0.649800X0.649800X-0.649800X-0.649800X0.649800X-0.649800X0.649800X0.649800X0*%
%ADD20R,1.500000X1.500000*%
%ADD21C,1.500000*%
%ADD22RotRect,1.800000X1.800000X113.000000*%
%ADD23C,0.700000*%
%ADD24O,0.900000X2.400000*%
%ADD25O,0.900000X1.700000*%
G04 APERTURE END LIST*
D10*
%TO.C,D8*%
X119750000Y-106500000D03*
D11*
X119750000Y-103960000D03*
%TD*%
D10*
%TO.C,D10*%
X148000000Y-78700000D03*
D11*
X148000000Y-76160000D03*
%TD*%
D12*
%TO.C,H2*%
X176000000Y-64000000D03*
%TD*%
D13*
%TO.C,D4*%
X149000000Y-66000000D03*
D11*
X149951501Y-63644953D03*
%TD*%
D12*
%TO.C,H4*%
X176000000Y-111000000D03*
%TD*%
D14*
%TO.C,D5*%
X157000000Y-66000000D03*
D11*
X159338082Y-65007543D03*
%TD*%
D15*
%TO.C,D2*%
X133000000Y-66000000D03*
D11*
X130644953Y-65048499D03*
%TD*%
D16*
%TO.C,JP1*%
X115200000Y-111500000D03*
X117740000Y-111500000D03*
%TD*%
D17*
%TO.C,J6*%
X155000000Y-86000000D03*
D18*
X157540000Y-86000000D03*
X155000000Y-88540000D03*
X157540000Y-88540000D03*
X155000000Y-91080000D03*
X157540000Y-91080000D03*
X155000000Y-93620000D03*
X157540000Y-93620000D03*
X155000000Y-96160000D03*
X157540000Y-96160000D03*
%TD*%
D19*
%TO.C,U4*%
X175000000Y-71000000D03*
D11*
X175000000Y-73540000D03*
X175000000Y-76080000D03*
%TD*%
D10*
%TO.C,D12*%
X151500000Y-103500000D03*
D11*
X151500000Y-100960000D03*
%TD*%
D17*
%TO.C,J4*%
X167000000Y-103500000D03*
D18*
X167000000Y-100960000D03*
X169540000Y-103500000D03*
X169540000Y-100960000D03*
X172080000Y-103500000D03*
X172080000Y-100960000D03*
X174620000Y-103500000D03*
X174620000Y-100960000D03*
X177160000Y-103500000D03*
X177160000Y-100960000D03*
%TD*%
D10*
%TO.C,D7*%
X115100000Y-106500000D03*
D11*
X115100000Y-103960000D03*
%TD*%
D10*
%TO.C,D9*%
X124400000Y-106500000D03*
D11*
X124400000Y-103960000D03*
%TD*%
D10*
%TO.C,D6*%
X110500000Y-107800000D03*
D11*
X110500000Y-105260000D03*
%TD*%
D12*
%TO.C,H3*%
X103942500Y-111000000D03*
%TD*%
D20*
%TO.C,U5*%
X166000000Y-84500000D03*
D21*
X168540000Y-84500000D03*
X171080000Y-84500000D03*
X173620000Y-84500000D03*
%TD*%
D10*
%TO.C,D11*%
X146000000Y-103500000D03*
D11*
X146000000Y-100960000D03*
%TD*%
D12*
%TO.C,H1*%
X102500000Y-62500000D03*
%TD*%
D17*
%TO.C,J5*%
X121300000Y-63900000D03*
D18*
X121300000Y-66440000D03*
%TD*%
D22*
%TO.C,D3*%
X141000000Y-66000000D03*
D11*
X140007543Y-63661918D03*
%TD*%
D23*
%TO.C,J2*%
X135000000Y-114000000D03*
X134150000Y-114000000D03*
X133300000Y-114000000D03*
X132450000Y-114000000D03*
X131600000Y-114000000D03*
X130750000Y-114000000D03*
X129900000Y-114000000D03*
X129050000Y-114000000D03*
X129050000Y-112650000D03*
X129900000Y-112650000D03*
X130750000Y-112650000D03*
X131600000Y-112650000D03*
X132450000Y-112650000D03*
X133300000Y-112650000D03*
X134150000Y-112650000D03*
X135000000Y-112650000D03*
D24*
X136350000Y-113020000D03*
D25*
X136350000Y-109640000D03*
D24*
X127700000Y-113020000D03*
D25*
X127700000Y-109640000D03*
%TD*%
M02*
