%TF.GenerationSoftware,KiCad,Pcbnew,9.0.7+1*%
%TF.CreationDate,2026-06-11T14:20:35+00:00*%
%TF.ProjectId,esp32-ir-remote,65737033-322d-4697-922d-72656d6f7465,rev?*%
%TF.SameCoordinates,Original*%
%TF.FileFunction,Paste,Top*%
%TF.FilePolarity,Positive*%
%FSLAX46Y46*%
G04 Gerber Fmt 4.6, Leading zero omitted, Abs format (unit mm)*
G04 Created by KiCad (PCBNEW 9.0.7+1) date 2026-06-11 14:20:35*
%MOMM*%
%LPD*%
G01*
G04 APERTURE LIST*
G04 Aperture macros list*
%AMRoundRect*
0 Rectangle with rounded corners*
0 $1 Rounding radius*
0 $2 $3 $4 $5 $6 $7 $8 $9 X,Y pos of 4 corners*
0 Add a 4 corners polygon primitive as box body*
4,1,4,$2,$3,$4,$5,$6,$7,$8,$9,$2,$3,0*
0 Add four circle primitives for the rounded corners*
1,1,$1+$1,$2,$3*
1,1,$1+$1,$4,$5*
1,1,$1+$1,$6,$7*
1,1,$1+$1,$8,$9*
0 Add four rect primitives between the rounded corners*
20,1,$1+$1,$2,$3,$4,$5,0*
20,1,$1+$1,$4,$5,$6,$7,0*
20,1,$1+$1,$6,$7,$8,$9,0*
20,1,$1+$1,$8,$9,$2,$3,0*%
G04 Aperture macros list end*
%ADD10RoundRect,0.250000X-0.262500X-0.450000X0.262500X-0.450000X0.262500X0.450000X-0.262500X0.450000X0*%
%ADD11RoundRect,0.150000X-0.587500X-0.150000X0.587500X-0.150000X0.587500X0.150000X-0.587500X0.150000X0*%
%ADD12RoundRect,0.200000X0.275000X-0.200000X0.275000X0.200000X-0.275000X0.200000X-0.275000X-0.200000X0*%
%ADD13RoundRect,0.225000X-0.225000X-0.250000X0.225000X-0.250000X0.225000X0.250000X-0.225000X0.250000X0*%
%ADD14RoundRect,0.250000X0.625000X-0.312500X0.625000X0.312500X-0.625000X0.312500X-0.625000X-0.312500X0*%
%ADD15RoundRect,0.225000X0.250000X-0.225000X0.250000X0.225000X-0.250000X0.225000X-0.250000X-0.225000X0*%
%ADD16RoundRect,0.250000X-0.312500X-0.625000X0.312500X-0.625000X0.312500X0.625000X-0.312500X0.625000X0*%
%ADD17RoundRect,0.250000X0.450000X-0.262500X0.450000X0.262500X-0.450000X0.262500X-0.450000X-0.262500X0*%
%ADD18RoundRect,0.200000X-0.200000X-0.275000X0.200000X-0.275000X0.200000X0.275000X-0.200000X0.275000X0*%
%ADD19RoundRect,0.250000X0.475000X-0.250000X0.475000X0.250000X-0.475000X0.250000X-0.475000X-0.250000X0*%
%ADD20R,2.650013X7.300000*%
%ADD21R,1.000000X0.750000*%
%ADD22RoundRect,0.250000X1.450000X-0.312500X1.450000X0.312500X-1.450000X0.312500X-1.450000X-0.312500X0*%
%ADD23RoundRect,0.250000X0.900000X-1.000000X0.900000X1.000000X-0.900000X1.000000X-0.900000X-1.000000X0*%
%ADD24RoundRect,0.150000X0.512500X0.150000X-0.512500X0.150000X-0.512500X-0.150000X0.512500X-0.150000X0*%
%ADD25RoundRect,0.150000X-0.150000X0.825000X-0.150000X-0.825000X0.150000X-0.825000X0.150000X0.825000X0*%
%ADD26RoundRect,0.250000X-0.250000X-0.475000X0.250000X-0.475000X0.250000X0.475000X-0.250000X0.475000X0*%
%ADD27RoundRect,0.150000X-0.625000X0.150000X-0.625000X-0.150000X0.625000X-0.150000X0.625000X0.150000X0*%
%ADD28RoundRect,0.250000X-0.650000X0.350000X-0.650000X-0.350000X0.650000X-0.350000X0.650000X0.350000X0*%
%ADD29R,0.900000X1.500000*%
%ADD30R,1.500000X0.900000*%
%ADD31R,0.900000X0.900000*%
G04 APERTURE END LIST*
D10*
%TO.C,R1*%
X131087500Y-97500000D03*
X132912500Y-97500000D03*
%TD*%
D11*
%TO.C,Q3*%
X136562500Y-77550000D03*
X136562500Y-79450000D03*
X138437500Y-78500000D03*
%TD*%
D12*
%TO.C,R21*%
X131050000Y-90925000D03*
X131050000Y-89275000D03*
%TD*%
D13*
%TO.C,C5*%
X108225000Y-89700000D03*
X109775000Y-89700000D03*
%TD*%
D11*
%TO.C,Q4*%
X145062500Y-96950000D03*
X145062500Y-98850000D03*
X146937500Y-97900000D03*
%TD*%
D14*
%TO.C,R12*%
X158500000Y-73962500D03*
X158500000Y-71037500D03*
%TD*%
%TO.C,R9*%
X134500000Y-73962500D03*
X134500000Y-71037500D03*
%TD*%
D15*
%TO.C,C4*%
X113300000Y-101575000D03*
X113300000Y-100025000D03*
%TD*%
D16*
%TO.C,R5*%
X159537500Y-79000000D03*
X162462500Y-79000000D03*
%TD*%
D10*
%TO.C,R25*%
X148587500Y-93150000D03*
X150412500Y-93150000D03*
%TD*%
D17*
%TO.C,R19*%
X148000000Y-83912500D03*
X148000000Y-82087500D03*
%TD*%
D14*
%TO.C,R11*%
X150500000Y-73962500D03*
X150500000Y-71037500D03*
%TD*%
D18*
%TO.C,R24*%
X153225000Y-98940000D03*
X154875000Y-98940000D03*
%TD*%
D19*
%TO.C,C2*%
X106300000Y-106550000D03*
X106300000Y-104650000D03*
%TD*%
D20*
%TO.C,L1*%
X106674879Y-95500000D03*
X111325121Y-95500000D03*
%TD*%
D16*
%TO.C,R4*%
X126037500Y-97300000D03*
X128962500Y-97300000D03*
%TD*%
%TO.C,R8*%
X124837500Y-85230000D03*
X127762500Y-85230000D03*
%TD*%
D11*
%TO.C,Q1*%
X127422500Y-87250000D03*
X127422500Y-89150000D03*
X129297500Y-88200000D03*
%TD*%
D21*
%TO.C,SW1*%
X149000000Y-106425000D03*
X155000000Y-106425000D03*
X149000000Y-110175000D03*
X155000000Y-110175000D03*
%TD*%
D16*
%TO.C,R6*%
X164337500Y-79000000D03*
X167262500Y-79000000D03*
%TD*%
D22*
%TO.C,F1*%
X124400000Y-92937500D03*
X124400000Y-88662500D03*
%TD*%
D14*
%TO.C,R30*%
X125200000Y-72462500D03*
X125200000Y-69537500D03*
%TD*%
D12*
%TO.C,R23*%
X144200000Y-82325000D03*
X144200000Y-80675000D03*
%TD*%
D16*
%TO.C,R28*%
X169337500Y-91500000D03*
X172262500Y-91500000D03*
%TD*%
D17*
%TO.C,R18*%
X124400000Y-102012500D03*
X124400000Y-100187500D03*
%TD*%
D13*
%TO.C,C7*%
X111225000Y-89700000D03*
X112775000Y-89700000D03*
%TD*%
D16*
%TO.C,R27*%
X167417500Y-73000000D03*
X170342500Y-73000000D03*
%TD*%
%TO.C,R14*%
X138037500Y-82000000D03*
X140962500Y-82000000D03*
%TD*%
D23*
%TO.C,D1*%
X120000000Y-93650000D03*
X120000000Y-89350000D03*
%TD*%
D13*
%TO.C,C9*%
X168905000Y-76500000D03*
X170455000Y-76500000D03*
%TD*%
D17*
%TO.C,R17*%
X119750000Y-102012500D03*
X119750000Y-100187500D03*
%TD*%
D10*
%TO.C,R2*%
X134587500Y-97500000D03*
X136412500Y-97500000D03*
%TD*%
D24*
%TO.C,U1*%
X111137500Y-102950000D03*
X111137500Y-102000000D03*
X111137500Y-101050000D03*
X108862500Y-101050000D03*
X108862500Y-102000000D03*
X108862500Y-102950000D03*
%TD*%
D21*
%TO.C,SW2*%
X159000000Y-106425000D03*
X165000000Y-106425000D03*
X159000000Y-110175000D03*
X165000000Y-110175000D03*
%TD*%
D11*
%TO.C,Q2*%
X127422500Y-91050000D03*
X127422500Y-92950000D03*
X129297500Y-92000000D03*
%TD*%
D12*
%TO.C,R26*%
X130900000Y-95625000D03*
X130900000Y-93975000D03*
%TD*%
D19*
%TO.C,C1*%
X106300000Y-102550000D03*
X106300000Y-100650000D03*
%TD*%
D25*
%TO.C,U2*%
X142945000Y-89025000D03*
X141675000Y-89025000D03*
X140405000Y-89025000D03*
X139135000Y-89025000D03*
X137865000Y-89025000D03*
X136595000Y-89025000D03*
X135325000Y-89025000D03*
X134055000Y-89025000D03*
X134055000Y-93975000D03*
X135325000Y-93975000D03*
X136595000Y-93975000D03*
X137865000Y-93975000D03*
X139135000Y-93975000D03*
X140405000Y-93975000D03*
X141675000Y-93975000D03*
X142945000Y-93975000D03*
%TD*%
D19*
%TO.C,C3*%
X115700000Y-95750000D03*
X115700000Y-93850000D03*
%TD*%
D10*
%TO.C,R13*%
X133587500Y-82000000D03*
X135412500Y-82000000D03*
%TD*%
D26*
%TO.C,C6*%
X140050000Y-85200000D03*
X141950000Y-85200000D03*
%TD*%
D19*
%TO.C,C8*%
X160440000Y-97450000D03*
X160440000Y-95550000D03*
%TD*%
D27*
%TO.C,J3*%
X178500000Y-93640000D03*
X178500000Y-94640000D03*
X178500000Y-95640000D03*
X178500000Y-96640000D03*
D28*
X174625000Y-92340000D03*
X174625000Y-97940000D03*
%TD*%
D29*
%TO.C,U3*%
X105250000Y-86750000D03*
X106520000Y-86750000D03*
X107790000Y-86750000D03*
X109060000Y-86750000D03*
X110330000Y-86750000D03*
X111600000Y-86750000D03*
X112870000Y-86750000D03*
X114140000Y-86750000D03*
X115410000Y-86750000D03*
X116680000Y-86750000D03*
X117950000Y-86750000D03*
X119220000Y-86750000D03*
X120490000Y-86750000D03*
X121760000Y-86750000D03*
D30*
X123010000Y-83710000D03*
X123010000Y-82440000D03*
X123010000Y-81170000D03*
X123010000Y-79900000D03*
X123010000Y-78630000D03*
X123010000Y-77360000D03*
X123010000Y-76090000D03*
X123010000Y-74820000D03*
X123010000Y-73550000D03*
X123010000Y-72280000D03*
D29*
X121760000Y-69250000D03*
X120490000Y-69250000D03*
X119220000Y-69250000D03*
X117950000Y-69250000D03*
X116680000Y-69250000D03*
X115410000Y-69250000D03*
X114140000Y-69250000D03*
X112870000Y-69250000D03*
X111600000Y-69250000D03*
X110330000Y-69250000D03*
X109060000Y-69250000D03*
X107790000Y-69250000D03*
X106520000Y-69250000D03*
X105250000Y-69250000D03*
D31*
X111570000Y-80900000D03*
X112970000Y-80900000D03*
X114370000Y-80900000D03*
X111570000Y-79500000D03*
X112970000Y-79500000D03*
X114370000Y-79500000D03*
X111570000Y-78100000D03*
X112970000Y-78100000D03*
X114370000Y-78100000D03*
%TD*%
D16*
%TO.C,R29*%
X169337500Y-94000000D03*
X172262500Y-94000000D03*
%TD*%
%TO.C,R7*%
X159537500Y-76400000D03*
X162462500Y-76400000D03*
%TD*%
D14*
%TO.C,R10*%
X142500000Y-73352500D03*
X142500000Y-70427500D03*
%TD*%
D16*
%TO.C,R22*%
X153037500Y-76800000D03*
X155962500Y-76800000D03*
%TD*%
D17*
%TO.C,R16*%
X115100000Y-102012500D03*
X115100000Y-100187500D03*
%TD*%
D11*
%TO.C,Q5*%
X149562500Y-96950000D03*
X149562500Y-98850000D03*
X151437500Y-97900000D03*
%TD*%
D10*
%TO.C,R20*%
X148587500Y-90900000D03*
X150412500Y-90900000D03*
%TD*%
D16*
%TO.C,R3*%
X125837500Y-95000000D03*
X128762500Y-95000000D03*
%TD*%
D13*
%TO.C,C10*%
X114225000Y-89700000D03*
X115775000Y-89700000D03*
%TD*%
D16*
%TO.C,R15*%
X108537500Y-113200000D03*
X111462500Y-113200000D03*
%TD*%
M02*
