%TF.GenerationSoftware,KiCad,Pcbnew,9.0.6*%
%TF.CreationDate,2026-06-11T10:05:23+10:00*%
%TF.ProjectId,esp32-ir-remote,65737033-322d-4697-922d-72656d6f7465,rev?*%
%TF.SameCoordinates,Original*%
%TF.FileFunction,Legend,Bot*%
%TF.FilePolarity,Positive*%
%FSLAX46Y46*%
G04 Gerber Fmt 4.6, Leading zero omitted, Abs format (unit mm)*
G04 Created by KiCad (PCBNEW 9.0.6) date 2026-06-11 10:05:23*
%MOMM*%
%LPD*%
G01*
G04 APERTURE LIST*
%ADD10C,0.350000*%
%ADD11C,0.200000*%
%ADD12O,0.600000X2.100000*%
%ADD13O,0.600000X1.400000*%
G04 APERTURE END LIST*
D10*
X119750000Y-106500000D03*
X119750000Y-103960000D03*
X148000000Y-78700000D03*
X148000000Y-76160000D03*
X176000000Y-64000000D03*
X149000000Y-66000000D03*
X149951501Y-63644953D03*
X176000000Y-111000000D03*
X157000000Y-66000000D03*
X159338082Y-65007543D03*
X133000000Y-66000000D03*
X130644953Y-65048499D03*
X115200000Y-111500000D03*
X117740000Y-111500000D03*
X155000000Y-86000000D03*
X157540000Y-86000000D03*
X155000000Y-88540000D03*
X157540000Y-88540000D03*
X155000000Y-91080000D03*
X157540000Y-91080000D03*
X155000000Y-93620000D03*
X157540000Y-93620000D03*
X155000000Y-96160000D03*
X157540000Y-96160000D03*
X175000000Y-71000000D03*
X175000000Y-73540000D03*
X175000000Y-76080000D03*
X151500000Y-103500000D03*
X151500000Y-100960000D03*
X167000000Y-103500000D03*
X167000000Y-100960000D03*
X169540000Y-103500000D03*
X169540000Y-100960000D03*
X172080000Y-103500000D03*
X172080000Y-100960000D03*
X174620000Y-103500000D03*
X174620000Y-100960000D03*
X177160000Y-103500000D03*
X177160000Y-100960000D03*
X115100000Y-106500000D03*
X115100000Y-103960000D03*
X124400000Y-106500000D03*
X124400000Y-103960000D03*
X110500000Y-107800000D03*
X110500000Y-105260000D03*
D11*
X112270000Y-80900000D03*
X113670000Y-80900000D03*
X111570000Y-80200000D03*
X112970000Y-80200000D03*
X114370000Y-80200000D03*
X112270000Y-79525000D03*
X113670000Y-79525000D03*
X111570000Y-78800000D03*
X112970000Y-78800000D03*
X114370000Y-78800000D03*
X112270000Y-78100000D03*
X113670000Y-78100000D03*
D10*
X103942500Y-111000000D03*
X166000000Y-84500000D03*
X168540000Y-84500000D03*
X171080000Y-84500000D03*
X173620000Y-84500000D03*
X146000000Y-103500000D03*
X146000000Y-100960000D03*
X102500000Y-62500000D03*
X124500000Y-63900000D03*
X124500000Y-66440000D03*
X141000000Y-66000000D03*
X140007543Y-63661918D03*
X135000000Y-114000000D03*
X134150000Y-114000000D03*
X133300000Y-114000000D03*
X132450000Y-114000000D03*
X131600000Y-114000000D03*
X130750000Y-114000000D03*
X129900000Y-114000000D03*
X129050000Y-114000000D03*
X129050000Y-112650000D03*
X129900000Y-112650000D03*
X130750000Y-112650000D03*
X131600000Y-112650000D03*
X132450000Y-112650000D03*
X133300000Y-112650000D03*
X134150000Y-112650000D03*
X135000000Y-112650000D03*
D12*
X136350000Y-113020000D03*
D13*
X136350000Y-109640000D03*
D12*
X127700000Y-113020000D03*
D13*
X127700000Y-109640000D03*
M02*
